<svg xmlns="http://www.w3.org/2000/svg" width="11217" height="2033" viewBox="0 0 11217 2033">
  <defs>
    <style>
      .cls-1 {
        font-size: 26px;
        font-family: "Gotham Pro";
        font-weight: 700;
      }

      .cls-1, .cls-2 {
        fill: #fff;
      }

      .cls-2 {
        fill-rule: evenodd;
      }
    </style>
  </defs>
  <text id="Financed_copy_2" data-name="Financed copy 2" class="cls-1" transform="translate(3153.267 1642.06) scale(64.573 64.6)">Financed</text>
  <path id="Shape_58_copy_2" data-name="Shape 58 copy 2" class="cls-2" d="M1547.08,208.675c-424.26,0-763.01,358.606-763.01,807.645,0,449.02,338.75,807.62,763.01,807.62,424.14,0,762.89-358.6,762.89-807.62,0-449.039-338.75-807.645-762.89-807.645h0ZM1988.05,220.1c259.73,164.969,432.83,457.123,432.83,796.222,0,339.08-173.1,640.42-432.83,796.23,380.95-45.87,668.26-383.84,668.26-796.23,0-412.361-295.98-750.416-668.26-796.222h0ZM1487.5,540.884h110.9V641.149c77.94,0,121.81,18.863,165.11,37.26l-35.18,137.373c-26.05-18.257-78.47-45.7-165.11-45.7-69.25,0-94.62,35.443-94.62,62.911,0,36.69,43.3,63.657,129.8,100.3,129.94,45.818,181.26,110.538,181.26,220.488,17.36,109.93-51.32,202.2-181.26,220.5v117.49H1487.5V1382.88c-77.94,0-148.82-27.48-192.11-45.83l35.17-137.43c43.3,27.46,111.98,54.46,181.34,54.46,60.58,0,105.52-25.87,105.52-71.66,0-45.84-35.18-75.67-121.78-103.09-121.25-45.84-200.25-98.555-200.25-217.741,0-100.742,70.87-184.368,192.11-211.812V540.884h0Z"/>
</svg>
