<svg xmlns="http://www.w3.org/2000/svg" width="10054" height="2604" viewBox="0 0 10054 2604">
  <defs>
    <style>
      .cls-1 {
        font-size: 26px;
        font-family: "Gotham Pro";
        font-weight: 700;
      }

      .cls-1, .cls-2 {
        fill: #fff;
      }

      .cls-2 {
        fill-rule: evenodd;
      }
    </style>
  </defs>
  <text id="Financed_copy_2" data-name="Financed copy 2" class="cls-1" transform="translate(2679.602 1901.032) scale(61.749 61.79)">Financed</text>
  <path id="Shape_58_copy_2" data-name="Shape 58 copy 2" class="cls-2" d="M1143.65,529.988c-405.708,0-729.643,343.009-729.643,772.522C414.007,1732,737.942,2075,1143.65,2075c405.59,0,729.53-343,729.53-772.49,0-429.513-323.94-772.522-729.53-772.522h0Zm421.68,10.926c248.38,157.794,413.91,437.242,413.91,761.6,0,324.33-165.53,612.57-413.91,761.6,364.3-43.87,639.04-367.15,639.04-761.6,0-394.43-283.03-717.782-639.04-761.6h0ZM1086.68,847.749h106.05v95.9c74.53,0,116.48,18.042,157.88,35.639l-33.63,131.4c-24.91-17.46-75.04-43.71-157.9-43.71-66.21,0-90.48,33.9-90.48,60.17,0,35.1,41.41,60.89,124.13,95.94,124.25,43.83,173.33,105.73,173.33,210.9,16.6,105.15-49.08,193.41-173.33,210.91v112.38H1086.68V1653.13c-74.53,0-142.311-26.29-183.717-43.84L936.6,1477.84c41.406,26.26,107.082,52.08,173.412,52.08,57.93,0,100.9-24.74,100.9-68.53,0-43.85-33.63-72.39-116.45-98.62-115.946-43.84-191.5-94.26-191.5-208.26,0-96.36,67.78-176.354,183.717-202.6V847.749h0Z"/>
</svg>
