<svg xmlns="http://www.w3.org/2000/svg" width="2500" height="800" viewBox="0 0 2500 800">
  <defs>
    <style>
      .cls-1 {
        font-size: 26px;
        font-family: "Gotham Pro";
        font-weight: 700;
      }

      .cls-1, .cls-2 {
        fill: #fff;
      }

      .cls-2 {
        fill-rule: evenodd;
      }
    </style>
  </defs>
  <text id="Financed_copy_2" data-name="Financed copy 2" class="cls-1" transform="translate(679.24 545.662) scale(15.024 15.038)">Financed</text>
  <path id="Shape_58_copy_2" data-name="Shape 58 copy 2" class="cls-2" d="M305.529,212C206.817,212,128,295.474,128,400s78.815,188,177.527,188c98.684,0,177.5-83.474,177.5-188S404.213,212,305.529,212h0Zm102.6,2.659c60.432,38.4,100.707,106.41,100.707,185.347S468.561,549.08,408.129,585.349C496.764,574.673,563.611,496,563.611,400S494.748,225.319,408.129,214.656h0ZM291.668,289.329h25.8v23.34c18.134,0,28.341,4.391,38.415,8.673L347.7,353.32c-6.06-4.25-18.258-10.638-38.416-10.638-16.111,0-22.016,8.25-22.016,14.644,0,8.541,10.076,14.818,30.2,23.348C347.7,391.34,359.644,406.405,359.644,432c4.039,25.59-11.941,47.07-42.174,51.328v27.352h-25.8V485.33c-18.134,0-34.625-6.4-44.7-10.668l8.184-31.991c10.075,6.391,26.055,12.676,42.193,12.676,14.095,0,24.55-6.022,24.55-16.68s-8.184-17.615-28.334-24c-28.21-10.671-46.593-22.941-46.593-50.686,0-23.451,16.492-42.917,44.7-49.306V289.329h0Z"/>
</svg>
