<svg xmlns="http://www.w3.org/2000/svg" width="688" height="200" viewBox="0 0 688 200">
  <defs>
    <style>
      .cls-1 {
        font-size: 26px;
        font-family: "Gotham Pro";
        font-weight: 700;
      }

      .cls-1, .cls-2 {
        fill: #fff;
      }

      .cls-2 {
        fill-rule: evenodd;
      }
    </style>
  </defs>
  <text id="Financed_copy_2" data-name="Financed copy 2" class="cls-1" transform="translate(208.873 134.979) scale(3.567 3.559)">Financed</text>
  <path id="Shape_58_copy_2" data-name="Shape 58 copy 2" class="cls-2" d="M120.148,56C96.713,56,78,75.758,78,100.5S96.713,145,120.148,145s42.142-19.758,42.142-44.5S143.578,56,120.148,56h0Zm24.359,0.629a51.609,51.609,0,0,1,23.91,43.872c0,18.683-9.562,35.287-23.91,43.872,21.044-2.528,36.914-21.15,36.914-43.872s-16.349-41.348-36.914-43.872h0ZM116.858,74.3h6.125v5.525a20.588,20.588,0,0,1,9.121,2.053l-1.943,7.569a15.548,15.548,0,0,0-9.121-2.518c-3.825,0-5.227,1.953-5.227,3.466,0,2.022,2.392,3.507,7.17,5.526C130.161,98.45,133,102.016,133,108.074c0.959,6.057-2.835,11.142-10.013,12.15V126.7h-6.125v-6a27.734,27.734,0,0,1-10.613-2.525l1.943-7.573a19.834,19.834,0,0,0,10.017,3c3.347,0,5.829-1.426,5.829-3.948s-1.943-4.17-6.727-5.681c-6.7-2.526-11.062-5.43-11.062-12,0-5.551,3.915-10.159,10.613-11.671v-6h0Z"/>
</svg>
