<svg xmlns="http://www.w3.org/2000/svg" width="750" height="158" viewBox="0 0 750 158">
  <defs>
    <style>
      .cls-1 {
        font-size: 26px;
        font-family: "Gotham Pro";
        font-weight: 700;
      }

      .cls-1, .cls-2 {
        fill: #fff;
      }

      .cls-2 {
        fill-rule: evenodd;
      }
    </style>
  </defs>
  <text id="Financed_copy_2" data-name="Financed copy 2" class="cls-1" transform="translate(231.485 115.416) scale(3.774 3.759)">Financed</text>
  <path id="Shape_58_copy_2" data-name="Shape 58 copy 2" class="cls-2" d="M137.6,32C112.8,32,93,52.868,93,79s19.8,47,44.6,47,44.592-20.869,44.592-47-19.8-47-44.592-47h0Zm25.775,0.665A54.485,54.485,0,0,1,188.675,79c0,19.733-10.118,37.269-25.3,46.336C185.643,122.668,202.436,103,202.436,79s-17.3-43.671-39.061-46.337h0ZM134.118,51.332H140.6v5.835a21.817,21.817,0,0,1,9.65,2.168l-2.056,7.995a16.469,16.469,0,0,0-9.651-2.66c-4.047,0-5.531,2.063-5.531,3.661,0,2.135,2.532,3.7,7.588,5.837C148.2,76.835,151.2,80.6,151.2,87c1.015,6.4-3,11.767-10.595,12.832v6.838h-6.482v-6.337a29.389,29.389,0,0,1-11.23-2.668l2.056-8a21.014,21.014,0,0,0,10.6,3.169c3.541,0,6.167-1.506,6.167-4.17s-2.056-4.4-7.118-6c-7.087-2.668-11.7-5.735-11.7-12.671,0-5.863,4.143-10.729,11.23-12.327V51.332h0Z"/>
</svg>
