<svg xmlns="http://www.w3.org/2000/svg" width="775" height="163" viewBox="0 0 775 163">
  <defs>
    <style>
      .cls-1 {
        font-size: 26px;
        font-family: "Gotham Pro";
        font-weight: 700;
      }

      .cls-1, .cls-2 {
        fill: #fff;
      }

      .cls-2 {
        fill-rule: evenodd;
      }
    </style>
  </defs>
  <text id="Financed_copy_2" data-name="Financed copy 2" class="cls-1" transform="translate(244.485 118.416) scale(3.774 3.759)">Financed</text>
  <path id="Shape_58_copy_2" data-name="Shape 58 copy 2" class="cls-2" d="M150.6,35C125.8,35,106,55.868,106,82s19.8,47,44.6,47,44.592-20.869,44.592-47-19.8-47-44.592-47h0Zm25.775,0.665A54.485,54.485,0,0,1,201.675,82c0,19.732-10.118,37.269-25.3,46.336C198.643,125.668,215.436,106,215.436,82s-17.3-43.671-39.061-46.337h0ZM147.118,54.332H153.6v5.835a21.817,21.817,0,0,1,9.65,2.168l-2.056,7.995a16.469,16.469,0,0,0-9.651-2.66c-4.047,0-5.531,2.063-5.531,3.661,0,2.135,2.532,3.7,7.588,5.837C161.2,79.835,164.2,83.6,164.2,90c1.015,6.4-3,11.767-10.595,12.832v6.838h-6.482v-6.337a29.407,29.407,0,0,1-11.23-2.667l2.056-8a21.014,21.014,0,0,0,10.6,3.169c3.541,0,6.167-1.506,6.167-4.17s-2.056-4.4-7.118-6c-7.087-2.668-11.7-5.735-11.7-12.671,0-5.863,4.143-10.729,11.23-12.327V54.332h0Z"/>
</svg>
